<svg width="777" height="461" viewBox="0 0 777 461" fill="none" xmlns="http://www.w3.org/2000/svg">
<g opacity="0.4">
<path d="M143.029 296.242C98.7414 305.296 52.8259 302.15 10.1863 287.142C9.96422 287.061 9.78256 286.896 9.67993 286.683C9.5773 286.47 9.56179 286.226 9.63669 286.002C9.67431 285.89 9.73387 285.787 9.8119 285.698C9.88992 285.61 9.98483 285.538 10.091 285.487C10.1973 285.436 10.3126 285.406 10.4304 285.4C10.5481 285.394 10.6659 285.412 10.7767 285.452C146.178 332.229 258.978 253.436 368.107 177.242C473.557 103.605 582.632 27.4921 712.193 64.2784C712.305 64.3093 712.41 64.362 712.502 64.4335C712.594 64.5051 712.671 64.5941 712.729 64.6954C712.787 64.7967 712.824 64.9084 712.838 65.0241C712.853 65.1398 712.844 65.2572 712.814 65.3696C712.783 65.482 712.73 65.5873 712.658 65.6793C712.587 65.7713 712.498 65.8484 712.397 65.906C712.192 66.0225 711.949 66.0528 711.722 65.9904C582.962 29.5083 474.376 105.409 369.137 178.819C297.191 228.939 223.658 280.274 143.029 296.242Z" fill="url(#paint0_linear_94_21)" fill-opacity="0.28"/>
<path d="M149.922 331.048C106.958 339.835 62.4347 337.116 20.859 323.165C20.6363 323.093 20.4515 322.935 20.3451 322.726C20.2387 322.517 20.2195 322.275 20.2916 322.052C20.3682 321.827 20.5301 321.641 20.7425 321.534C20.9549 321.427 21.2007 321.408 21.4272 321.48C155.054 365.602 266.798 287.55 375.041 212.018C481.519 137.737 591.61 60.7987 722.897 99.9952C723.095 100.087 723.253 100.247 723.343 100.446C723.432 100.645 723.447 100.87 723.385 101.079C723.322 101.288 723.186 101.467 723.002 101.584C722.818 101.701 722.598 101.748 722.382 101.716C592.092 62.7617 482.37 139.35 376.137 213.466C304.079 263.723 230.529 315.085 149.922 331.048Z" fill="url(#paint1_linear_94_21)" fill-opacity="0.28"/>
<path d="M156.789 365.837C115.113 374.365 71.9472 372.069 31.4116 359.167C31.1865 359.09 31.0004 358.928 30.8935 358.716C30.7866 358.503 30.7673 358.258 30.8397 358.031C30.873 357.919 30.9288 357.815 31.0035 357.725C31.0783 357.635 31.1706 357.562 31.2747 357.508C31.3788 357.455 31.4927 357.424 31.6093 357.416C31.7259 357.409 31.8429 357.425 31.9531 357.464C163.997 398.962 274.747 321.615 381.863 246.815C489.348 171.78 600.486 94.1718 733.348 135.947C733.57 136.021 733.755 136.177 733.865 136.383C733.975 136.59 734.001 136.831 733.937 137.056C733.903 137.168 733.848 137.272 733.774 137.362C733.7 137.453 733.609 137.527 733.505 137.582C733.402 137.637 733.289 137.671 733.173 137.682C733.057 137.693 732.94 137.681 732.828 137.646C600.785 96.1478 490.007 173.477 382.892 248.277C310.968 298.507 237.396 349.873 156.789 365.837Z" fill="url(#paint2_linear_94_21)" fill-opacity="0.28"/>
<path d="M163.655 400.625C123.284 408.891 81.4918 406.986 42.04 395.084C41.8121 395.011 41.6209 394.853 41.5061 394.644C41.3913 394.434 41.3618 394.188 41.4236 393.957C41.4958 393.729 41.6551 393.538 41.867 393.427C42.0788 393.316 42.3261 393.293 42.5549 393.363C172.846 432.317 282.678 355.707 388.796 281.591C497.252 205.855 609.428 127.532 744.056 171.918C744.279 171.991 744.463 172.149 744.57 172.357C744.676 172.566 744.695 172.808 744.623 173.031C744.547 173.256 744.385 173.442 744.172 173.549C743.96 173.656 743.714 173.676 743.488 173.603C609.861 129.481 497.983 207.56 389.852 282.954C317.879 333.287 244.284 384.657 163.655 400.625Z" fill="url(#paint3_linear_94_21)" fill-opacity="0.28"/>
<path d="M170.548 435.432C131.452 443.463 90.996 441.955 52.606 431.036C52.3805 430.967 52.1906 430.814 52.0764 430.608C51.9622 430.401 51.9327 430.159 51.9941 429.931C52.0255 429.818 52.0791 429.712 52.1519 429.62C52.2247 429.528 52.3151 429.451 52.418 429.394C52.5208 429.337 52.634 429.301 52.7508 429.288C52.8677 429.275 52.9859 429.286 53.0986 429.319C181.832 465.784 290.445 389.901 395.68 316.468C505.156 240.045 618.344 160.989 754.59 208.062C754.702 208.099 754.805 208.159 754.894 208.237C754.982 208.315 755.054 208.41 755.105 208.516C755.156 208.622 755.186 208.737 755.192 208.855C755.198 208.973 755.18 209.091 755.14 209.202C755.104 209.312 755.047 209.414 754.971 209.502C754.895 209.59 754.802 209.661 754.697 209.712C754.593 209.763 754.479 209.793 754.363 209.798C754.247 209.804 754.131 209.787 754.022 209.747C618.603 162.881 505.767 241.612 396.781 317.823C324.768 368.071 251.155 419.468 170.548 435.432Z" fill="url(#paint4_linear_94_21)" fill-opacity="0.28"/>
</g>
<path d="M120.918 364.083C119.463 361.013 116.961 358.565 113.861 357.178C112.079 356.385 110.491 355.216 109.206 353.749C107.921 352.282 106.97 350.554 106.42 348.683L106.631 347.3C106.668 347.066 106.61 346.827 106.47 346.635C106.33 346.444 106.12 346.316 105.886 346.28C105.652 346.243 105.413 346.301 105.221 346.441C105.03 346.581 104.902 346.791 104.866 347.025L96.9549 401.207C96.1472 400.076 95.1162 399.124 93.9258 398.407C90.9719 396.683 87.5969 395.814 84.1776 395.897C76.4803 395.918 70.2391 400.022 70.2608 405.036C70.2616 409.361 74.9087 412.974 81.1048 413.898C82.1376 414.047 83.18 414.118 84.2234 414.113C87.6293 414.173 90.9848 413.284 93.9143 411.546C95.1039 410.919 96.1145 410 96.8506 408.875C97.5868 407.75 98.0244 406.457 98.1221 405.116L103.706 367.214C105.14 370.379 107.682 372.911 110.852 374.333C112.729 375.17 114.393 376.422 115.718 377.994C117.043 379.566 117.994 381.418 118.501 383.41C118.54 383.526 118.61 383.629 118.703 383.708C118.796 383.787 118.909 383.84 119.029 383.861L119.185 383.83C119.336 383.824 119.48 383.764 119.591 383.662C119.702 383.559 119.773 383.421 119.791 383.27L121.765 369.882C122.091 367.908 121.795 365.881 120.918 364.083Z" fill="url(#paint5_linear_94_21)" fill-opacity="0.45"/>
<path d="M599.039 167.796C596.04 166.149 592.548 165.641 589.204 166.367C587.295 166.777 585.32 166.772 583.413 166.352C581.506 165.931 579.712 165.105 578.152 163.93L577.487 162.674C577.376 162.465 577.187 162.307 576.961 162.235C576.735 162.163 576.49 162.183 576.278 162.289C576.068 162.401 575.911 162.589 575.839 162.815C575.767 163.042 575.786 163.287 575.893 163.499L601.474 212.204C600.148 211.758 598.744 211.587 597.35 211.703C593.941 212.041 590.695 213.324 587.977 215.409C581.735 219.976 579.079 227.001 582.061 231.082C584.631 234.597 590.566 234.786 596.093 231.865C597.016 231.375 597.903 230.821 598.748 230.206C601.556 228.24 603.759 225.529 605.107 222.378C605.705 221.161 605.984 219.812 605.918 218.458C605.852 217.104 605.443 215.788 604.73 214.635L586.802 180.511C589.849 182.234 593.42 182.786 596.845 182.061C598.866 181.638 600.956 181.677 602.96 182.173C604.964 182.669 606.831 183.609 608.421 184.926C608.524 184.994 608.643 185.035 608.767 185.043C608.89 185.051 609.013 185.026 609.124 184.971L609.28 184.94C609.394 184.841 609.472 184.707 609.501 184.559C609.53 184.411 609.509 184.257 609.442 184.122L603.102 172.079C602.238 170.256 600.815 168.755 599.039 167.796Z" fill="url(#paint6_linear_94_21)" fill-opacity="0.45"/>
<path d="M464.801 264.215C467.37 264.71 469.795 265.776 471.896 267.333C473.998 268.89 475.723 270.899 476.944 273.212C477.022 273.351 477.14 273.462 477.281 273.533C477.423 273.604 477.583 273.631 477.74 273.61C477.809 273.619 477.88 273.605 477.94 273.57C478.122 273.51 478.279 273.391 478.386 273.231C478.492 273.072 478.543 272.882 478.529 272.69L477.571 261.663C477.365 259.166 476.403 256.791 474.812 254.855C472.105 251.474 468.278 249.172 464.022 248.366C461.58 247.901 459.268 246.912 457.246 245.468C455.223 244.024 453.537 242.159 452.305 240.001L452.134 238.208C452.108 237.91 451.965 237.634 451.736 237.441C451.507 237.248 451.211 237.153 450.913 237.178C450.763 237.191 450.618 237.234 450.486 237.304C450.353 237.374 450.236 237.47 450.141 237.586C450.045 237.701 449.974 237.835 449.93 237.978C449.887 238.122 449.872 238.272 449.887 238.421L455.932 307.833C454.605 306.675 453.054 305.801 451.376 305.266C447.219 303.983 442.787 303.884 438.576 304.979C434.336 305.923 430.438 308.015 427.308 311.027C425.868 312.085 424.772 313.545 424.159 315.224C423.545 316.903 423.441 318.725 423.859 320.463C424.277 322.201 425.199 323.776 426.509 324.992C427.82 326.208 429.46 327.009 431.224 327.296C434.057 328.21 437.049 328.523 440.01 328.216C441.355 328.113 442.689 327.895 443.997 327.565C453.447 325.3 459.938 318.488 458.597 312.301L456.002 282.61C458.729 286.104 462.628 288.494 466.979 289.34C470.981 290.398 474.748 291.433 479.122 298.337C479.215 298.466 479.338 298.569 479.481 298.637C479.624 298.706 479.781 298.738 479.94 298.73L480.14 298.691C480.325 298.632 480.483 298.51 480.586 298.345C480.689 298.181 480.73 297.985 480.702 297.793L479.749 286.788C479.565 284.278 478.598 281.889 476.985 279.958C474.278 276.576 470.45 274.274 466.194 273.468C463.751 273.008 461.438 272.021 459.415 270.577C457.391 269.132 455.706 267.265 454.477 265.104L453.824 257.485C456.538 260.995 460.443 263.389 464.801 264.215Z" fill="url(#paint7_linear_94_21)" fill-opacity="0.45"/>
<path d="M234.914 273.139L229.124 234.206L226.966 219.693L226.803 218.869L187.153 224.779L187.312 225.58L189.474 240.116L194.79 275.72C192.915 274.53 190.79 273.79 188.582 273.558C186.373 273.325 184.141 273.606 182.059 274.379C175.256 276.466 170.828 281.784 172.172 286.235C173.344 290.051 178.413 291.938 184.181 291.166C185.136 291.057 186.082 290.869 187.007 290.606C193.769 288.55 198.171 283.33 196.924 278.905L191.942 245.455L228.356 240.024L232.856 270.101C231.837 269.329 230.673 268.773 229.433 268.466C226.36 267.725 223.143 267.85 220.137 268.827C213.335 270.914 208.902 276.209 210.247 280.661C211.423 284.499 216.487 286.363 222.259 285.614C223.215 285.504 224.16 285.317 225.086 285.054C231.742 282.811 236.161 277.564 234.914 273.139ZM191.651 243.755L191.067 239.869L227.486 234.461L228.066 238.324L191.651 243.755Z" fill="url(#paint8_linear_94_21)" fill-opacity="0.45"/>
<path d="M714.643 126.515L712.3 94.8319L711.419 83.0263L711.291 82.3809L679.029 84.7227L679.161 85.3903L680.02 97.2004L682.154 126.196C680.717 125.125 679.05 124.402 677.286 124.085C675.521 123.769 673.707 123.866 671.987 124.37C666.383 125.619 662.509 129.647 663.325 133.302C663.951 136.462 668.023 138.338 672.695 137.991C673.447 137.899 674.191 137.751 674.921 137.55C680.476 136.288 684.341 132.331 683.6 128.708L681.587 101.492L711.219 99.3014L713.037 123.78C712.282 123.081 711.389 122.549 710.415 122.218C707.996 121.437 705.407 121.349 702.941 121.964C697.319 123.239 693.44 127.245 694.257 130.899C694.882 134.06 698.954 135.936 703.627 135.589C704.378 135.496 705.122 135.349 705.852 135.148C711.518 134.095 715.361 130.143 714.643 126.515ZM681.576 100.269L681.324 97.1272L710.956 94.9361L711.208 98.0778L681.576 100.269Z" fill="url(#paint9_linear_94_21)" fill-opacity="0.45"/>
<path d="M584.761 78.2982L558.304 43.3881L548.438 30.3554L547.879 29.7492L512.305 56.7071L512.842 57.4334L522.73 70.4617L546.91 102.4C543.005 101.716 537.915 103.695 533.796 107.888C528.246 113.612 526.746 121.102 530.45 124.74C533.634 127.856 539.651 127.057 544.802 123.17C545.667 122.523 546.476 121.806 547.222 121.025C552.705 115.429 554.232 108.073 550.639 104.298L524.183 69.3878L556.86 44.6223L581.027 76.378C577.122 75.6943 572.033 77.6735 567.891 81.8703C565.378 84.3396 563.594 87.4536 562.735 90.8704C562.241 92.214 562.146 93.672 562.462 95.0683C562.778 96.4646 563.491 97.7397 564.516 98.7398C565.54 99.7398 566.832 100.422 568.236 100.704C569.639 100.986 571.095 100.856 572.426 100.33C574.724 99.7245 576.874 98.6533 578.741 97.183C579.614 96.5266 580.438 95.8069 581.205 95.0297C586.827 89.4298 588.269 81.882 584.761 78.2982Z" fill="url(#paint10_linear_94_21)" fill-opacity="0.45"/>
<defs>
<linearGradient id="paint0_linear_94_21" x1="347.909" y1="108.513" x2="375.953" y2="250.118" gradientUnits="userSpaceOnUse">
<stop stop-color="#9C78D7"/>
<stop offset="1" stop-color="#36018C"/>
</linearGradient>
<linearGradient id="paint1_linear_94_21" x1="358.175" y1="142.591" x2="386.23" y2="284.254" gradientUnits="userSpaceOnUse">
<stop stop-color="#9C78D7"/>
<stop offset="1" stop-color="#36018C"/>
</linearGradient>
<linearGradient id="paint2_linear_94_21" x1="368.355" y1="176.721" x2="396.411" y2="318.387" gradientUnits="userSpaceOnUse">
<stop stop-color="#9C78D7"/>
<stop offset="1" stop-color="#36018C"/>
</linearGradient>
<linearGradient id="paint3_linear_94_21" x1="378.643" y1="210.84" x2="406.697" y2="352.498" gradientUnits="userSpaceOnUse">
<stop stop-color="#9C78D7"/>
<stop offset="1" stop-color="#36018C"/>
</linearGradient>
<linearGradient id="paint4_linear_94_21" x1="388.831" y1="245.072" x2="416.871" y2="386.656" gradientUnits="userSpaceOnUse">
<stop stop-color="#9C78D7"/>
<stop offset="1" stop-color="#36018C"/>
</linearGradient>
<linearGradient id="paint5_linear_94_21" x1="88.7733" y1="349.613" x2="100.974" y2="411.219" gradientUnits="userSpaceOnUse">
<stop stop-color="#A56EFF"/>
<stop offset="1" stop-color="#F82CA6"/>
</linearGradient>
<linearGradient id="paint6_linear_94_21" x1="586.104" y1="160.309" x2="600.269" y2="231.835" gradientUnits="userSpaceOnUse">
<stop stop-color="#A56EFF"/>
<stop offset="1" stop-color="#F82CA6"/>
</linearGradient>
<linearGradient id="paint7_linear_94_21" x1="440.488" y1="239.236" x2="457.459" y2="324.931" gradientUnits="userSpaceOnUse">
<stop stop-color="#A56EFF"/>
<stop offset="1" stop-color="#F82CA6"/>
</linearGradient>
<linearGradient id="paint8_linear_94_21" x1="193.716" y1="223.479" x2="206.646" y2="288.766" gradientUnits="userSpaceOnUse">
<stop stop-color="#A56EFF"/>
<stop offset="1" stop-color="#F82CA6"/>
</linearGradient>
<linearGradient id="paint9_linear_94_21" x1="682.589" y1="84.0176" x2="693.219" y2="137.692" gradientUnits="userSpaceOnUse">
<stop stop-color="#A56EFF"/>
<stop offset="1" stop-color="#F82CA6"/>
</linearGradient>
<linearGradient id="paint10_linear_94_21" x1="541.821" y1="30.9489" x2="559.866" y2="122.07" gradientUnits="userSpaceOnUse">
<stop stop-color="#A56EFF"/>
<stop offset="1" stop-color="#F82CA6"/>
</linearGradient>
</defs>
</svg>
