<svg width="472" height="585" viewBox="0 0 472 585" fill="none" xmlns="http://www.w3.org/2000/svg">
<g filter="url(#filter0_f_93_20)">
<path d="M271.076 566.933C360.27 566.933 432.576 562.262 432.576 556.5C432.576 550.738 360.27 546.067 271.076 546.067C181.882 546.067 109.576 550.738 109.576 556.5C109.576 562.262 181.882 566.933 271.076 566.933Z" fill="#DCCEFA" fill-opacity="0.47"/>
</g>
<g filter="url(#filter1_f_93_20)">
<path d="M271.076 561.27C360.27 561.27 432.576 558.841 432.576 555.845C432.576 552.849 360.27 550.42 271.076 550.42C181.882 550.42 109.576 552.849 109.576 555.845C109.576 558.841 181.882 561.27 271.076 561.27Z" fill="#513C7E" fill-opacity="0.42"/>
</g>
<path d="M226.288 81.954H226.111C226.001 81.9082 225.915 81.8212 225.869 81.7118C225.788 81.5019 218.181 61.121 231.784 50.0585L238.859 46.6025C238.957 46.5541 239.068 46.5438 239.173 46.5737C239.277 46.6035 239.367 46.6714 239.424 46.764C239.481 46.8546 239.505 46.963 239.49 47.0696C239.475 47.1761 239.423 47.2739 239.343 47.3454C226.191 58.0364 231.929 78.8049 231.993 79.0148C232.017 79.1179 232.006 79.2258 231.962 79.322C231.918 79.4182 231.845 79.4975 231.752 79.5478L226.465 81.954H226.288ZM236.603 48.6535L232.267 50.7691C220.325 60.4589 225.53 77.9166 226.53 80.9205L231.043 78.8533C230.366 76.1563 226.691 59.1992 236.603 48.6535Z" fill="white"/>
<path d="M323.846 215.076C322.509 215.076 321.09 215.076 319.624 214.914C309.857 214.139 301.266 209.116 294.061 200.008C272.416 172.554 269.805 117.128 271.932 103.272L272.803 103.401C270.691 117.176 273.27 172.263 294.755 199.459C301.798 208.373 310.179 213.267 319.688 213.993C334.436 215.172 345.121 210.166 350.585 199.54C359.208 182.76 352.632 154.466 335.258 133.73C329.681 127.076 327.795 119.873 330.084 113.979C330.904 111.824 332.295 109.933 334.106 108.511C335.918 107.088 338.082 106.187 340.367 105.904C346.62 105.064 353.116 108.52 358.096 115.368L357.387 115.884C352.551 109.312 346.379 105.985 340.431 106.776C338.305 107.037 336.29 107.875 334.603 109.198C332.916 110.521 331.621 112.28 330.858 114.286C328.682 119.89 330.519 126.769 335.886 133.165C353.76 154.498 360.239 182.582 351.31 199.943C347.732 207.114 340.044 215.076 323.846 215.076Z" fill="#36018C"/>
<path d="M238.376 47.4907C227.094 52.8524 211.992 56.7445 216.779 77.0607C221.566 97.377 208.817 103.385 218.39 111.314C227.964 119.244 261.408 118.517 274.269 113.527C288.775 107.89 305.553 88.8499 289.194 79.1117C276.429 71.5214 270.885 61.7024 269.031 55.727C265.244 43.5341 252.205 36.6382 238.376 47.4907Z" fill="#263238"/>
<path d="M301.476 78.3204C289.049 75.7849 276.59 71.1661 269.724 54.7419C266.968 48.1529 262.6 44.0024 257.395 43.0657C251.512 42.016 244.92 45.0037 238.876 51.4958L238.231 50.8821C244.485 44.18 251.334 41.0793 257.572 42.2098C263.084 43.1949 267.694 47.523 270.562 54.4028C277.267 70.4394 289.484 74.9613 301.685 77.4483L301.476 78.3204Z" fill="#263238"/>
<path d="M296.753 138.849L297.35 139.479L298.139 140.287C298.703 140.819 299.251 141.385 299.864 141.902C301.04 143 302.314 144.049 303.603 145.131C306.183 147.243 308.873 149.216 311.662 151.042C314.498 152.899 317.464 154.595 320.446 156.259C322.057 157.034 323.476 157.874 325.039 158.616L328.649 160.344C329.169 160.54 329.742 160.54 330.261 160.344C331.362 159.942 332.391 159.364 333.307 158.633C335.768 156.668 337.981 154.413 339.899 151.914C344.152 146.398 347.983 140.567 351.359 134.473L358.112 137.234C355.905 144.58 352.814 151.63 348.909 158.229C346.805 161.79 344.229 165.049 341.253 167.919C339.458 169.625 337.401 171.032 335.161 172.085C332.329 173.422 329.155 173.85 326.071 173.313C325.27 173.169 324.483 172.958 323.718 172.683L322.235 172.134L319.559 171.1C317.754 170.422 316.013 169.598 314.257 168.839C310.738 167.22 307.31 165.408 303.99 163.413C300.641 161.389 297.412 159.173 294.319 156.775C292.708 155.532 291.257 154.256 289.774 152.867C289.033 152.189 288.292 151.462 287.566 150.719L286.486 149.556C286.1 149.12 285.809 148.797 285.261 148.135L296.753 138.849Z" fill="#FFB573"/>
<path d="M284.955 125.348C290.919 123.895 306.069 143.533 306.069 143.533L296.866 161.087C296.866 161.087 271.417 146.698 272.384 138.768C273.383 130.516 276.252 127.48 284.955 125.348Z" fill="#FF0099"/>
<path opacity="0.2" d="M284.955 125.348C290.919 123.895 306.069 143.533 306.069 143.533L296.866 161.087C296.866 161.087 271.417 146.698 272.384 138.768C273.383 130.516 276.252 127.48 284.955 125.348Z" fill="white"/>
<path opacity="0.2" d="M288.888 132.147L287.437 155.128C292.498 158.6 296.866 161.087 296.866 161.087L298.784 157.405L288.888 132.147Z" fill="black"/>
<path d="M350.07 138.219L355.614 122.796L363.495 135.167C363.495 135.167 359.079 143.242 353.084 143.242L350.07 138.219Z" fill="#FFB573"/>
<path d="M363.624 115.658L371.731 124.912L363.495 135.151L355.614 122.796L363.624 115.658Z" fill="#FFB573"/>
<path d="M271.755 532.513L286.116 533.078L288.678 499.648L274.318 499.083L271.755 532.513Z" fill="#FFB573"/>
<path d="M131.872 334.647L129.036 348.795L160.851 359.922L163.672 345.758L131.872 334.647Z" fill="#FFB573"/>
<path d="M131.485 350.846L136.965 335.584C137.068 335.323 137.071 335.033 136.973 334.771C136.875 334.508 136.682 334.292 136.434 334.163L125.022 328.075C124.729 327.925 124.406 327.84 124.077 327.826C123.747 327.812 123.419 327.869 123.113 327.993C122.808 328.117 122.532 328.305 122.306 328.545C122.079 328.785 121.906 329.07 121.799 329.383C119.962 334.728 119.349 337.457 116.964 344.111C115.465 348.245 111.822 355.917 109.775 361.601C107.728 367.286 113.241 369.676 114.611 367.464C120.735 357.645 125.538 355.303 129.825 352.816C130.586 352.367 131.172 351.672 131.485 350.846Z" fill="#263238"/>
<path d="M286.599 532.222L271.014 527.846C270.746 527.764 270.458 527.785 270.204 527.904C269.951 528.024 269.751 528.233 269.644 528.492L264.406 540.345C264.289 540.654 264.238 540.984 264.258 541.314C264.277 541.643 264.366 541.965 264.518 542.258C264.67 542.551 264.882 542.808 265.141 543.013C265.399 543.217 265.698 543.365 266.017 543.446C271.465 544.867 274.173 545.287 281.039 547.209C285.245 548.388 297.575 553.96 303.603 554.444C309.631 554.929 310.421 548.969 307.955 548.226C300.004 545.875 293.177 540.71 288.743 533.692C288.226 532.961 287.466 532.44 286.599 532.222V532.222Z" fill="#263238"/>
<g opacity="0.2">
<path d="M288.678 499.648L287.357 516.88L272.996 516.331L274.302 499.099L288.678 499.648Z" fill="black"/>
<path d="M163.672 345.758L160.835 359.922L144.444 354.172L147.281 340.025L163.672 345.758Z" fill="black"/>
</g>
<path d="M292.482 131.356C293.868 139.528 295.206 160.134 289.259 208.131L230.865 211.749C230.414 189.317 229.254 171.229 217.117 127.771C216.814 126.7 216.754 125.576 216.942 124.479C217.129 123.383 217.56 122.343 218.201 121.435C218.843 120.527 219.68 119.775 220.649 119.234C221.619 118.692 222.698 118.376 223.806 118.307C228.254 118.049 233.847 117.871 239.553 118.113C248.554 118.31 257.532 119.13 266.42 120.568C273.995 121.924 282.296 124.024 287.115 125.332C288.492 125.714 289.73 126.485 290.682 127.553C291.634 128.622 292.259 129.942 292.482 131.356Z" fill="#F82CA6"/>
<path opacity="0.2" d="M292.482 131.356C293.868 139.528 295.206 160.134 289.259 208.131L230.865 211.749C230.414 189.317 229.254 171.229 217.117 127.771C216.814 126.7 216.754 125.576 216.942 124.479C217.129 123.383 217.56 122.343 218.201 121.435C218.843 120.527 219.68 119.775 220.649 119.234C221.619 118.692 222.698 118.376 223.806 118.307C228.254 118.049 233.847 117.871 239.553 118.113C248.554 118.31 257.532 119.13 266.42 120.568C273.995 121.924 282.296 124.024 287.115 125.332C288.492 125.714 289.73 126.485 290.682 127.553C291.634 128.622 292.259 129.942 292.482 131.356Z" fill="#97306E"/>
<path d="M289.146 208.131C289.146 208.131 307.342 318.433 309.099 362.425C310.936 408.193 290.403 512.261 290.403 512.261H270.981C270.981 512.261 278.089 412.909 273.609 368.126C268.773 319.305 246.451 210.78 246.451 210.78L289.146 208.131Z" fill="#561EB1"/>
<path d="M269.289 512.972H292.16L293.836 505.656L268.225 504.768L269.289 512.972Z" fill="#263238"/>
<path opacity="0.2" d="M265.727 237.314C281.845 265.333 273.641 318.789 269.773 338.733C265.357 309.422 258.748 273.666 253.655 247.423C254.961 232.323 258.297 224.394 265.727 237.314Z" fill="black"/>
<path d="M273.802 209.1C273.802 209.1 273.383 325.378 255.622 359.486C234.524 399.86 147.023 358.258 147.023 358.258L150.891 338.879C150.891 338.879 208.913 351.976 224.08 341.14C240.391 290.494 210.412 247.472 230.817 211.684L273.802 209.1Z" fill="#561EB1"/>
<path d="M151.213 336.65L146.426 360.584L153.421 364.653L160.319 336.731L151.213 336.65Z" fill="#263238"/>
<path d="M230.881 137.783C228.254 144.97 225.611 152.318 223.097 159.65C220.582 166.982 218.262 174.33 216.215 181.662L215.844 183.035L215.667 183.729C215.667 183.955 215.522 184.262 215.554 184.084V183.325C215.562 183.191 215.562 183.056 215.554 182.922C215.522 182.67 215.468 182.421 215.393 182.179C215.354 182.051 215.306 181.927 215.248 181.807C215.182 181.623 215.101 181.445 215.006 181.274C214.811 180.893 214.573 180.535 214.297 180.208C213.983 179.807 213.607 179.459 213.185 179.175C212.816 178.905 212.416 178.683 211.992 178.513C211.656 178.384 211.311 178.282 210.96 178.206C210.701 178.136 210.437 178.082 210.171 178.044C209.752 178.029 209.333 178.078 208.93 178.19C208.639 178.303 208.833 178.27 209.058 178.19C209.35 178.07 209.635 177.935 209.913 177.786C210.557 177.431 211.283 176.995 212.008 176.51C214.957 174.556 218.052 172.214 221.066 169.857C227.126 165.109 233.218 160.167 239.327 155.241L244.501 160.393C239.496 166.636 234.164 172.609 228.528 178.287C225.634 181.237 222.583 184.03 219.39 186.652C218.536 187.33 217.649 188.009 216.634 188.703C216.102 189.042 215.57 189.398 214.909 189.753C214.095 190.218 213.229 190.586 212.33 190.851C211.451 191.105 210.537 191.219 209.623 191.19C209.227 191.18 208.834 191.137 208.446 191.061C207.97 190.98 207.505 190.845 207.06 190.657C206.524 190.438 206.015 190.156 205.545 189.817C205.031 189.453 204.565 189.024 204.159 188.542C203.808 188.113 203.505 187.647 203.256 187.153C203.143 186.927 203.014 186.636 202.95 186.458L202.757 185.909C202.655 185.548 202.574 185.182 202.515 184.811C202.499 184.553 202.499 184.294 202.515 184.036C202.482 183.611 202.482 183.185 202.515 182.76V182.211V181.807C202.612 181.145 202.66 180.984 202.708 180.725L202.853 179.982L203.16 178.48C204.771 170.406 206.915 162.735 209.284 155.08C211.653 147.425 214.2 139.931 217.198 132.389L230.881 137.783Z" fill="#FFB573"/>
<path d="M219.116 119.066C213.378 121.214 207.592 141.837 207.592 141.837L231.3 156.695C231.3 156.695 238.843 136.798 235.91 129.369C232.864 121.634 225.676 116.676 219.116 119.066Z" fill="#FD0299"/>
<path opacity="0.2" d="M219.116 119.066C213.378 121.214 207.592 141.837 207.592 141.837L231.3 156.695C231.3 156.695 238.843 136.798 235.91 129.369C232.864 121.634 225.676 116.676 219.116 119.066Z" fill="white"/>
<path d="M127.15 357.305C127.15 357.305 127.15 357.418 127.15 357.483C127.284 357.788 127.494 358.053 127.759 358.254C128.024 358.454 128.336 358.584 128.665 358.63C128.865 358.681 129.074 358.678 129.273 358.622C129.471 358.565 129.651 358.456 129.793 358.307C131.083 356.999 129.906 351.847 129.793 351.33C129.78 351.264 129.747 351.203 129.698 351.157C129.649 351.11 129.586 351.081 129.519 351.072C129.455 351.063 129.389 351.071 129.33 351.097C129.27 351.122 129.218 351.164 129.181 351.217C128.198 352.832 126.618 355.69 127.15 357.305ZM129.342 352.299C129.761 354.35 130.051 357.144 129.342 357.838C129.274 357.902 129.19 357.946 129.099 357.966C129.009 357.986 128.914 357.981 128.826 357.951C128.608 357.923 128.401 357.84 128.223 357.71C128.046 357.581 127.904 357.408 127.811 357.209C127.472 356.353 127.972 354.544 129.342 352.347V352.299Z" fill="#407BFF"/>
<path d="M129.294 352.041C129.825 353.752 131.631 356.627 133.097 356.886C133.366 356.922 133.639 356.867 133.873 356.73C134.107 356.592 134.288 356.38 134.387 356.126C134.499 355.889 134.557 355.63 134.557 355.367C134.557 355.105 134.499 354.846 134.387 354.608C133.613 352.654 129.713 351.233 129.551 351.169C129.501 351.137 129.442 351.12 129.382 351.12C129.322 351.12 129.264 351.137 129.213 351.169C129.171 351.21 129.139 351.261 129.119 351.317C129.099 351.373 129.093 351.433 129.1 351.492C129.154 351.678 129.218 351.862 129.294 352.041V352.041ZM133.855 354.931C133.901 355.072 133.918 355.221 133.904 355.368C133.89 355.515 133.846 355.658 133.774 355.787C133.581 356.175 133.371 356.191 133.21 356.175C132.211 356.03 130.567 353.688 129.987 352.024C131.26 352.574 133.339 353.639 133.806 354.835C133.814 354.87 133.831 354.904 133.855 354.931V354.931Z" fill="#407BFF"/>
<path d="M291.128 536.114C292.286 536.556 293.559 536.59 294.738 536.211C295.014 536.073 295.251 535.87 295.431 535.62C295.611 535.369 295.727 535.079 295.77 534.774C295.812 534.59 295.806 534.398 295.752 534.217C295.699 534.036 295.599 533.872 295.464 533.74C294.029 532.319 287.695 533.595 286.986 533.74C286.917 533.757 286.855 533.794 286.807 533.846C286.758 533.897 286.725 533.961 286.712 534.031C286.705 534.101 286.72 534.171 286.755 534.231C286.79 534.292 286.842 534.34 286.905 534.37C288.257 535.08 289.67 535.664 291.128 536.114V536.114ZM294.352 533.934C294.568 533.977 294.768 534.077 294.932 534.225C294.989 534.277 295.03 534.343 295.053 534.417C295.076 534.491 295.078 534.569 295.061 534.645C295.031 534.846 294.954 535.037 294.836 535.202C294.719 535.368 294.564 535.503 294.384 535.597C293.336 536.114 291.015 535.597 288.082 534.225C290.156 533.768 292.293 533.67 294.4 533.934H294.352Z" fill="#407BFF"/>
<path d="M286.97 534.419H287.099C288.968 534.144 293.078 532.061 293.256 530.413C293.256 530.026 293.175 529.493 292.289 529.138C291.977 528.998 291.639 528.926 291.297 528.926C290.956 528.926 290.618 528.998 290.306 529.138C288.163 530.09 286.793 533.756 286.728 533.902C286.701 533.954 286.687 534.012 286.687 534.071C286.687 534.13 286.701 534.188 286.728 534.241C286.752 534.287 286.786 534.327 286.828 534.358C286.87 534.389 286.919 534.41 286.97 534.419ZM291.805 529.703H292.015C292.595 529.945 292.563 530.187 292.546 530.268C292.45 531.269 289.565 532.997 287.598 533.498C288.159 531.949 289.198 530.62 290.564 529.703C290.974 529.543 291.428 529.543 291.837 529.703H291.805Z" fill="#407BFF"/>
<path d="M229.737 208.373L228.561 213.703C228.383 214.123 228.883 214.51 229.56 214.462L289.662 210.747C290.193 210.747 290.612 210.424 290.629 210.101L290.838 204.821C290.838 204.465 290.371 204.175 289.79 204.223L230.656 207.873C230.472 207.868 230.291 207.912 230.13 208C229.968 208.088 229.833 208.217 229.737 208.373V208.373Z" fill="white"/>
<path d="M238.086 214.51L236.474 214.607C236.168 214.607 235.91 214.478 235.926 214.284L236.249 207.421C236.249 207.227 236.523 207.049 236.845 207.033L238.457 206.92C238.763 206.92 239.021 207.049 239.005 207.259L238.682 214.107C238.666 214.3 238.392 214.494 238.086 214.51Z" fill="#6A5195"/>
<path d="M285.245 211.587L283.634 211.684C283.327 211.684 283.069 211.555 283.086 211.361L283.408 204.514C283.408 204.304 283.682 204.126 283.988 204.11L285.6 204.013C285.906 204.013 286.164 204.142 286.148 204.336L285.826 211.183C285.826 211.393 285.568 211.571 285.245 211.587Z" fill="#6A5195"/>
<path d="M261.746 213.041L260.134 213.154C259.812 213.154 259.57 213.025 259.57 212.815L259.893 205.967C259.893 205.757 260.167 205.58 260.489 205.563L262.101 205.466C262.423 205.466 262.665 205.596 262.665 205.789L262.343 212.653C262.246 212.847 261.988 213.025 261.746 213.041Z" fill="#6A5195"/>
<path d="M239.504 118.291C248.505 118.483 257.483 119.297 266.372 120.729C269.595 121.295 272.98 122.021 276.155 122.748C277.847 127.997 279.024 138.72 274.302 147.57C273.642 145.87 272.642 144.323 271.365 143.023C270.087 141.724 268.558 140.699 266.871 140.012C264.231 142.476 262.22 145.539 261.005 148.943C254.735 147.812 237.86 133.132 230.156 121.311L228.158 118.258C231.655 118.048 235.555 118.032 239.504 118.291Z" fill="white"/>
<path d="M240.326 88.6238C242.55 97.2962 245.161 113.058 239.504 118.194C239.504 118.194 242.405 127.06 258.458 128.513C276.187 130.128 266.372 120.649 266.372 120.649C256.589 117.419 256.411 110.474 257.685 103.998L240.326 88.6238Z" fill="#FFB573"/>
<path d="M239.52 118.291C248.517 118.467 257.49 119.282 266.372 120.729L268.129 121.052C270.53 125.251 271.255 130.015 266.662 138.575C266.662 138.575 242.728 128.546 236.039 118.194L239.52 118.291Z" fill="#FFB573"/>
<path opacity="0.2" d="M247.402 94.9061L257.669 103.998C257.348 105.518 257.17 107.064 257.137 108.617C253.414 107.761 247.289 104.063 246.66 100.219C246.542 98.416 246.795 96.6077 247.402 94.9061V94.9061Z" fill="black"/>
<path d="M228.931 78.1589C234.04 91.5469 235.91 97.3285 245.049 102.173C258.7 109.457 274.06 100.252 272.98 85.62C272.077 72.4419 263.89 52.7717 248.804 51.512C245.49 51.2152 242.155 51.773 239.117 53.1323C236.078 54.4917 233.438 56.6074 231.446 59.2782C229.454 61.9489 228.177 65.0859 227.737 68.3907C227.297 71.6956 227.708 75.0582 228.931 78.1589V78.1589Z" fill="#FFB573"/>
<path d="M249.884 79.1763L248.691 79.0471C248.996 77.4818 249.826 76.0683 251.044 75.042C251.315 74.7593 251.658 74.5567 252.036 74.4566C252.414 74.3565 252.812 74.3626 253.187 74.4744C253.562 74.5863 253.898 74.7994 254.16 75.0904C254.422 75.3814 254.599 75.739 254.671 76.124L253.526 76.4955C253.492 76.3082 253.412 76.1322 253.294 75.9829C253.176 75.8337 253.024 75.7158 252.849 75.6395C252.658 75.6102 252.462 75.6255 252.278 75.6843C252.093 75.7431 251.925 75.8439 251.786 75.9787C250.825 76.8115 250.158 77.933 249.884 79.1763V79.1763Z" fill="#263238"/>
<path d="M263.358 72.9103C263.292 72.5769 263.299 72.2329 263.381 71.9029C263.462 71.573 263.616 71.2651 263.83 71.0013C264.044 70.7375 264.313 70.5243 264.619 70.3769C264.925 70.2295 265.259 70.1516 265.598 70.1487C266.21 70.0979 266.822 70.2344 267.355 70.5401C267.887 70.8458 268.314 71.3062 268.58 71.8605L267.532 72.4419C267.377 72.091 267.117 71.797 266.788 71.6004C266.459 71.4037 266.077 71.3141 265.695 71.3437C265.519 71.3488 265.346 71.3884 265.186 71.4605C265.025 71.5325 264.881 71.6355 264.76 71.7636C264.658 71.907 264.587 72.07 264.551 72.2423C264.515 72.4146 264.515 72.5926 264.551 72.7649L263.358 72.9103Z" fill="#263238"/>
<path d="M261.085 74.2507C262.863 76.4811 264.94 78.454 267.258 80.113C266.818 80.6937 266.257 81.1719 265.614 81.5148C264.971 81.8577 264.262 82.0571 263.535 82.0994L261.085 74.2507Z" fill="#ED893E"/>
<path d="M258.845 88.3493C259.393 88.2594 259.932 88.1244 260.457 87.9456C260.499 87.9328 260.538 87.9117 260.571 87.8834C260.605 87.855 260.632 87.8201 260.652 87.7808C260.671 87.7415 260.683 87.6986 260.685 87.6548C260.688 87.6109 260.681 87.567 260.666 87.5257C260.637 87.4426 260.578 87.3735 260.5 87.3317C260.423 87.2899 260.333 87.2785 260.247 87.2996C258.878 87.7692 257.417 87.9057 255.985 87.6979C254.553 87.4901 253.191 86.9439 252.011 86.1045C251.941 86.0467 251.85 86.0193 251.76 86.0284C251.669 86.0375 251.586 86.0823 251.528 86.153C251.47 86.2236 251.443 86.3144 251.452 86.4052C251.461 86.4961 251.506 86.5796 251.576 86.6374C252.614 87.3913 253.791 87.9308 255.039 88.2247C256.287 88.5186 257.581 88.561 258.845 88.3493V88.3493Z" fill="#263238"/>
<path d="M228.609 90.3519C230.315 92.5345 232.811 93.9559 235.555 94.3085C239.198 94.7284 240.391 91.337 238.956 88.1878C237.619 85.3616 234.121 81.728 230.688 82.7615C229.945 83.0002 229.274 83.4206 228.734 83.9848C228.195 84.549 227.804 85.2391 227.598 85.9927C227.391 86.7462 227.376 87.5395 227.552 88.3006C227.729 89.0618 228.092 89.7668 228.609 90.3519V90.3519Z" fill="#FFB573"/>
<path d="M252.076 51.4474C262.617 59.2477 249.32 60.2489 242.647 65.9821C236.2 71.4891 241.18 80.5167 230.253 84.1343C226.917 84.9355 223.497 85.3313 220.067 85.3132C220.067 85.3132 225.128 75.3973 223.516 69.4381C221.904 63.4789 240.004 42.3874 252.076 51.4474Z" fill="#263238"/>
<path d="M250.271 50.3169C252.511 55.1618 258.088 54.1767 262.552 59.1185C265.292 62.1384 269.724 51.948 262.665 48.4274C255.606 44.9068 246.757 42.7266 250.271 50.3169Z" fill="#263238"/>
<path d="M238.811 86.5567C240.31 92.2575 239.665 97.3769 233.976 98.8789C232.62 99.2341 231.208 99.3183 229.82 99.1267C228.432 98.935 227.095 98.4713 225.886 97.762C224.676 97.0527 223.618 96.1116 222.772 94.9926C221.926 93.8736 221.308 92.5985 220.953 91.2401C220.599 89.8817 220.515 88.4667 220.706 87.0758C220.897 85.6848 221.36 84.3453 222.068 83.1336C222.776 81.9219 223.715 80.8618 224.832 80.0137C225.948 79.1657 227.221 78.5464 228.577 78.1912C234.25 76.7054 237.312 80.8397 238.811 86.5567Z" fill="#F82CA6"/>
<path d="M239.053 46.9739L232.074 50.3654C218.552 61.3633 226.288 81.518 226.288 81.518L231.558 79.1117C231.558 79.1117 225.53 57.9557 239.053 46.9739Z" fill="#F82CA6"/>
<path opacity="0.3" d="M232.735 88.1394C233.879 92.5482 233.718 96.4241 230.317 97.3124C226.917 98.2006 223.242 95.3421 222.081 90.9332C220.921 86.5244 222.742 82.2124 226.143 81.2435C229.544 80.2745 231.623 83.7305 232.735 88.1394Z" fill="white"/>
<path d="M244.13 74.5091C244.268 74.4744 244.391 74.3959 244.481 74.2853C244.571 74.1747 244.623 74.038 244.63 73.8954C244.823 70.6655 248.272 68.566 248.304 68.5498C248.458 68.4556 248.568 68.304 248.611 68.1283C248.653 67.9527 248.624 67.7674 248.53 67.6132C248.436 67.459 248.285 67.3485 248.109 67.3061C247.934 67.2637 247.749 67.2929 247.595 67.3871C247.418 67.484 243.517 69.9549 243.276 73.8469C243.269 73.9361 243.28 74.0256 243.308 74.1104C243.336 74.1953 243.381 74.2737 243.439 74.3412C243.498 74.4087 243.569 74.4641 243.649 74.5039C243.728 74.5438 243.815 74.5675 243.904 74.5737L244.13 74.5091Z" fill="#263238"/>
<path d="M267.049 63.172C267.167 63.1726 267.283 63.1415 267.385 63.0818C267.487 63.0222 267.571 62.9362 267.629 62.8329C267.675 62.7557 267.706 62.67 267.719 62.5809C267.732 62.4917 267.727 62.4009 267.704 62.3137C267.682 62.2266 267.642 62.1447 267.588 62.073C267.533 62.0014 267.465 61.9412 267.387 61.8962C266.459 61.3342 265.41 61.0029 264.328 60.9298C263.245 60.8568 262.161 61.0441 261.166 61.4763C261.004 61.5577 260.88 61.7004 260.823 61.873C260.765 62.0457 260.779 62.2341 260.86 62.3968C260.941 62.5596 261.083 62.6834 261.256 62.7409C261.428 62.7984 261.616 62.7851 261.778 62.7037V62.7037C262.569 62.3686 263.428 62.2288 264.284 62.2963C265.139 62.3637 265.966 62.6364 266.694 63.0913C266.806 63.1408 266.927 63.1682 267.049 63.172V63.172Z" fill="#263238"/>
<path d="M237.57 158.342L235.249 142.919L247.724 150.59C247.724 150.59 247.289 159.86 241.89 162.428L237.57 158.342Z" fill="#FFB573"/>
<path d="M239.698 135.119L251.35 139.35L247.772 150.59L235.298 142.919L239.698 135.119Z" fill="#FFB573"/>
<path d="M359.19 114.56L351.872 120.071C351.466 120.377 351.384 120.954 351.689 121.36L363.968 137.73C364.273 138.136 364.849 138.218 365.255 137.912L372.573 132.401C372.978 132.095 373.06 131.518 372.755 131.112L360.476 114.743C360.171 114.336 359.595 114.254 359.19 114.56Z" fill="#36018C"/>
<path d="M359.796 116.615L353.676 121.224C353.349 121.47 353.283 121.936 353.529 122.264L359.959 130.836C360.205 131.164 360.67 131.23 360.997 130.983L367.117 126.374C367.444 126.128 367.51 125.662 367.264 125.334L360.834 116.762C360.588 116.434 360.123 116.368 359.796 116.615Z" fill="white"/>
<path d="M361.481 135.248L361.384 133.229L363.431 132.018C364.485 131.398 365.445 130.631 366.284 129.741L366.993 128.998L366.541 128.336C366.294 127.977 365.937 127.709 365.524 127.572C365.111 127.435 364.665 127.436 364.253 127.577L362.528 128.158L353.873 129.337V133.019L356.645 136.814L361.481 135.248Z" fill="#FFB573"/>
<defs>
<filter id="filter0_f_93_20" x="91.5758" y="528.067" width="359" height="56.8656" filterUnits="userSpaceOnUse" color-interpolation-filters="sRGB">
<feFlood flood-opacity="0" result="BackgroundImageFix"/>
<feBlend mode="normal" in="SourceGraphic" in2="BackgroundImageFix" result="shape"/>
<feGaussianBlur stdDeviation="9" result="effect1_foregroundBlur_93_20"/>
</filter>
<filter id="filter1_f_93_20" x="102.576" y="543.42" width="337" height="24.8501" filterUnits="userSpaceOnUse" color-interpolation-filters="sRGB">
<feFlood flood-opacity="0" result="BackgroundImageFix"/>
<feBlend mode="normal" in="SourceGraphic" in2="BackgroundImageFix" result="shape"/>
<feGaussianBlur stdDeviation="3.5" result="effect1_foregroundBlur_93_20"/>
</filter>
</defs>
</svg>
