<svg width="42" height="42" viewBox="0 0 42 42" fill="none" xmlns="http://www.w3.org/2000/svg">
<path d="M21 37.835C20.7422 37.8342 20.4919 37.748 20.2883 37.59C13.8016 32.55 9.3333 28.21 6.20663 23.9283C2.21663 18.4567 1.30663 13.405 3.49997 8.91334C5.0633 5.705 9.55497 3.08 14.805 4.60834C17.3081 5.33137 19.492 6.88192 21 9.00667C22.5079 6.88192 24.6918 5.33137 27.195 4.60834C32.4333 3.10334 36.9366 5.705 38.5 8.91334C40.6933 13.405 39.7833 18.4567 35.7933 23.9283C32.6666 28.21 28.1983 32.55 21.7116 37.59C21.508 37.748 21.2577 37.8342 21 37.835V37.835ZM11.8183 6.51C10.5691 6.46138 9.33024 6.75389 8.2347 7.35613C7.13917 7.95836 6.22834 8.84758 5.59997 9.92834C3.79163 13.6383 4.6083 17.7683 8.09663 22.54C11.8038 27.3217 16.1448 31.5763 21 35.1867C25.8544 31.5799 30.1953 27.3292 33.9033 22.5517C37.4033 17.7683 38.2083 13.6383 36.4 9.94C35.2333 7.60667 31.7333 5.75167 27.8366 6.84834C26.5872 7.21759 25.4289 7.84434 24.4363 8.68826C23.4437 9.53218 22.6387 10.5746 22.0733 11.7483C21.9854 11.9623 21.8359 12.1453 21.6437 12.2741C21.4516 12.4029 21.2255 12.4717 20.9941 12.4717C20.7628 12.4717 20.5367 12.4029 20.3445 12.2741C20.1524 12.1453 20.0029 11.9623 19.915 11.7483C19.3538 10.5716 18.5502 9.5268 17.557 8.68236C16.5638 7.83792 15.4033 7.21292 14.1516 6.84834C13.3933 6.62807 12.608 6.51421 11.8183 6.51V6.51Z" fill="#F7F2FF"/>
</svg>
