<svg width="42" height="42" viewBox="0 0 200 179" fill="none" xmlns="http://www.w3.org/2000/svg">
<path d="M194.285 36.5525C191.196 29.3996 186.742 22.9177 181.171 17.4697C175.597 12.0054 169.025 7.66304 161.812 4.67868C154.333 1.5718 146.311 -0.0184787 138.212 0.000161994C126.85 0.000161994 115.764 3.11149 106.131 8.98844C103.826 10.3943 101.637 11.9384 99.5625 13.6209C97.4883 11.9384 95.2988 10.3943 92.9941 8.98844C83.3605 3.11149 72.275 0.000161994 60.9129 0.000161994C52.7312 0.000161994 44.8031 1.56735 37.3129 4.67868C30.0762 7.67477 23.5539 11.9845 17.9535 17.4697C12.3761 22.9116 7.9207 29.395 4.83984 36.5525C1.63633 43.9966 0 51.9017 0 60.0373C0 67.7119 1.56719 75.7091 4.67852 83.8447C7.28281 90.6435 11.0164 97.6959 15.7871 104.817C23.3465 116.087 33.7406 127.841 46.6469 139.756C68.0344 159.508 89.2145 173.151 90.1133 173.704L95.5754 177.208C97.9953 178.752 101.107 178.752 103.527 177.208L108.989 173.704C109.888 173.128 131.045 159.508 152.455 139.756C165.361 127.841 175.755 116.087 183.315 104.817C188.086 97.6959 191.842 90.6435 194.423 83.8447C197.535 75.7091 199.102 67.7119 199.102 60.0373C199.125 51.9017 197.489 43.9966 194.285 36.5525V36.5525ZM99.5625 158.978C99.5625 158.978 17.5156 106.408 17.5156 60.0373C17.5156 36.5525 36.9441 17.5158 60.9129 17.5158C77.7602 17.5158 92.3719 26.9189 99.5625 40.6548C106.753 26.9189 121.365 17.5158 138.212 17.5158C162.181 17.5158 181.609 36.5525 181.609 60.0373C181.609 106.408 99.5625 158.978 99.5625 158.978Z" fill="white"/>
</svg>
