<svg width="42" height="42" viewBox="0 0 200 180" fill="none" xmlns="http://www.w3.org/2000/svg">
<path d="M195.072 37.231C191.983 30.0781 187.529 23.5962 181.959 18.1482C176.384 12.6839 169.812 8.34156 162.599 5.35721C155.12 2.25033 147.098 0.660049 138.999 0.67869C127.637 0.67869 116.552 3.79002 106.918 9.66697C104.613 11.0728 102.424 12.617 100.35 14.2994C98.2754 12.617 96.0859 11.0728 93.7812 9.66697C84.1476 3.79002 73.0621 0.67869 61.7 0.67869C53.5184 0.67869 45.5902 2.24588 38.1 5.35721C30.8633 8.3533 24.341 12.6631 18.7406 18.1482C13.1632 23.5901 8.70781 30.0735 5.62695 37.231C2.42344 44.6752 0.787109 52.5803 0.787109 60.7158C0.787109 68.3904 2.3543 76.3877 5.46563 84.5232C8.06992 91.322 11.8035 98.3744 16.5742 105.496C24.1336 116.766 34.5277 128.52 47.434 140.435C68.8215 160.186 90.0016 173.83 90.9004 174.383L96.3625 177.886C98.7824 179.43 101.894 179.43 104.314 177.886L109.776 174.383C110.675 173.807 131.832 160.186 153.242 140.435C166.148 128.52 176.543 116.766 184.102 105.496C188.873 98.3744 192.629 91.322 195.211 84.5232C198.322 76.3877 199.889 68.3904 199.889 60.7158C199.912 52.5803 198.276 44.6752 195.072 37.231ZM132 37.231C132 37.231 91.3722 104.293 109.776 82C117.714 72.3838 109.776 129 109.776 129C109.776 129 122.152 30 138.999 30C162.968 30 111.5 13.7463 111.5 37.231C111.5 83.6013 132 37.231 132 37.231Z" fill="#FF2A2A"/>
</svg>