<svg width="48" height="48" viewBox="0 0 48 48" fill="none" xmlns="http://www.w3.org/2000/svg">
<path d="M24 48C30.3652 48 36.4697 45.4714 40.9706 40.9706C45.4714 36.4697 48 30.3652 48 24C48 17.6348 45.4714 11.5303 40.9706 7.02944C36.4697 2.52856 30.3652 0 24 0C17.6348 0 11.5303 2.52856 7.02944 7.02944C2.52856 11.5303 0 17.6348 0 24C0 30.3652 2.52856 36.4697 7.02944 40.9706C11.5303 45.4714 17.6348 48 24 48ZM14.37 15.279L24 22.158V16.5C24.0002 16.2247 24.0761 15.9547 24.2195 15.7197C24.3629 15.4846 24.5683 15.2936 24.813 15.1675C25.0578 15.0414 25.3325 14.9851 25.6072 15.0048C25.8818 15.0244 26.1457 15.1193 26.37 15.279L36.87 22.779C37.0644 22.9178 37.2229 23.1009 37.3323 23.3133C37.4417 23.5257 37.4987 23.7611 37.4987 24C37.4987 24.2389 37.4417 24.4743 37.3323 24.6867C37.2229 24.8991 37.0644 25.0822 36.87 25.221L26.37 32.721C26.1457 32.8807 25.8818 32.9756 25.6072 32.9952C25.3325 33.0149 25.0578 32.9586 24.813 32.8325C24.5683 32.7064 24.3629 32.5154 24.2195 32.2803C24.0761 32.0453 24.0002 31.7753 24 31.5V25.842L14.37 32.721C14.1457 32.8807 13.8818 32.9756 13.6072 32.9952C13.3325 33.0149 13.0578 32.9586 12.813 32.8325C12.5683 32.7064 12.3629 32.5154 12.2195 32.2803C12.0761 32.0453 12.0002 31.7753 12 31.5V16.5C12.0002 16.2247 12.0761 15.9547 12.2195 15.7197C12.3629 15.4846 12.5683 15.2936 12.813 15.1675C13.0578 15.0414 13.3325 14.9851 13.6072 15.0048C13.8818 15.0244 14.1457 15.1193 14.37 15.279Z" fill="white"/>
</svg>
