<svg width="32" height="32" viewBox="0 0 32 32" fill="none" xmlns="http://www.w3.org/2000/svg">
<path d="M16 2C13.2311 2 10.5243 2.82109 8.22202 4.35943C5.91973 5.89777 4.12532 8.08427 3.06569 10.6424C2.00607 13.2006 1.72882 16.0155 2.26901 18.7313C2.80921 21.447 4.14258 23.9416 6.10051 25.8995C8.05845 27.8574 10.553 29.1908 13.2687 29.731C15.9845 30.2712 18.7994 29.9939 21.3576 28.9343C23.9157 27.8747 26.1022 26.0803 27.6406 23.778C29.1789 21.4757 30 18.7689 30 16C30 12.287 28.525 8.72601 25.8995 6.1005C23.274 3.475 19.713 2 16 2ZM23.447 16.895L11.447 22.895C11.2945 22.9712 11.1251 23.0072 10.9548 22.9994C10.7845 22.9917 10.619 22.9406 10.474 22.8509C10.329 22.7613 10.2093 22.636 10.1264 22.4871C10.0434 22.3381 9.99993 22.1705 10 22V10C10.0001 9.82961 10.0437 9.66207 10.1268 9.51327C10.2098 9.36448 10.3294 9.23936 10.4744 9.14981C10.6194 9.06025 10.7848 9.00921 10.955 9.00155C11.1252 8.99388 11.2946 9.02984 11.447 9.106L23.447 15.106C23.6129 15.1891 23.7524 15.3168 23.8498 15.4747C23.9473 15.6326 23.9989 15.8145 23.9989 16C23.9989 16.1855 23.9473 16.3674 23.8498 16.5253C23.7524 16.6832 23.6129 16.8109 23.447 16.894V16.895Z" fill="white"/>
</svg>
