<svg width="78" height="78" viewBox="0 0 78 78" fill="none" xmlns="http://www.w3.org/2000/svg">
<path d="M39 0.5C17.7391 0.5 0.5 17.7391 0.5 39C0.5 60.2609 17.7391 77.5 39 77.5C60.2609 77.5 77.5 60.2609 77.5 39C77.5 17.7391 60.2609 0.5 39 0.5ZM51.3836 39.593L32.6148 53.2484C32.5119 53.3224 32.3907 53.3665 32.2643 53.376C32.138 53.3855 32.0114 53.36 31.8986 53.3023C31.7859 53.2445 31.6912 53.1568 31.625 53.0488C31.5588 52.9408 31.5236 52.8166 31.5234 52.6898V25.3961C31.523 25.2691 31.5578 25.1445 31.6238 25.0361C31.6899 24.9277 31.7847 24.8397 31.8977 24.7818C32.0107 24.724 32.1376 24.6986 32.2641 24.7084C32.3907 24.7182 32.5121 24.7629 32.6148 24.8375L51.3836 38.4844C51.4723 38.5471 51.5446 38.6301 51.5945 38.7266C51.6444 38.823 51.6705 38.9301 51.6705 39.0387C51.6705 39.1473 51.6444 39.2543 51.5945 39.3507C51.5446 39.4472 51.4723 39.5303 51.3836 39.593Z" fill="#FCFCFC"/>
</svg>
