<svg width="26" height="26" viewBox="0 0 26 26" fill="none" xmlns="http://www.w3.org/2000/svg">
<path d="M22.25 0H9.25C8.38805 0 7.5614 0.34241 6.9519 0.951903C6.34241 1.5614 6 2.38805 6 3.25V22.75C6 23.612 6.34241 24.4386 6.9519 25.0481C7.5614 25.6576 8.38805 26 9.25 26H22.25C23.112 26 23.9386 25.6576 24.5481 25.0481C25.1576 24.4386 25.5 23.612 25.5 22.75V3.25C25.5 2.38805 25.1576 1.5614 24.5481 0.951903C23.9386 0.34241 23.112 0 22.25 0V0ZM21.4375 6.67875V9.60375L17.375 10.4163V18.6875C17.375 19.4919 16.8859 20.1224 16.2993 20.5124C15.7078 20.9072 14.9359 21.125 14.125 21.125C13.3125 21.125 12.5423 20.9072 11.9508 20.5124C11.3658 20.1224 10.875 19.4919 10.875 18.6875C10.875 17.8831 11.3641 17.2526 11.9508 16.8626C12.5423 16.4678 13.3141 16.25 14.125 16.25C14.7035 16.25 15.2625 16.3605 15.75 16.5685V7.16625C15.7502 6.79072 15.8805 6.42687 16.1187 6.13655C16.3569 5.84622 16.6883 5.64735 17.0565 5.57375L19.494 5.08625C19.7297 5.03915 19.9728 5.0449 20.206 5.1031C20.4392 5.16129 20.6565 5.27048 20.8424 5.4228C21.0283 5.57512 21.1781 5.76677 21.281 5.98395C21.3839 6.20113 21.4374 6.43843 21.4375 6.67875Z" fill="white"/>
</svg>
