<svg width="48" height="48" viewBox="0 0 48 48" fill="none" xmlns="http://www.w3.org/2000/svg">
<path d="M24 48C17.6348 48 11.5303 45.4714 7.02943 40.9706C2.52856 36.4697 0 30.3652 0 24C0 17.6348 2.52856 11.5303 7.02943 7.02944C11.5303 2.52856 17.6348 0 24 0C30.3652 0 36.4697 2.52856 40.9706 7.02944C45.4714 11.5303 48 17.6348 48 24C48 30.3652 45.4714 36.4697 40.9706 40.9706C36.4697 45.4714 30.3652 48 24 48ZM33.63 15.279L24 22.158V16.5C23.9998 16.2247 23.9239 15.9547 23.7805 15.7197C23.6371 15.4846 23.4317 15.2936 23.187 15.1675C22.9422 15.0414 22.6675 14.9851 22.3928 15.0048C22.1182 15.0244 21.8543 15.1193 21.63 15.279L11.13 22.779C10.9356 22.9178 10.7771 23.1009 10.6677 23.3133C10.5583 23.5257 10.5013 23.7611 10.5013 24C10.5013 24.2389 10.5583 24.4743 10.6677 24.6867C10.7771 24.8991 10.9356 25.0822 11.13 25.221L21.63 32.721C21.8543 32.8807 22.1182 32.9756 22.3928 32.9952C22.6675 33.0149 22.9422 32.9586 23.187 32.8325C23.4317 32.7064 23.6371 32.5154 23.7805 32.2803C23.9239 32.0453 23.9998 31.7753 24 31.5V25.842L33.63 32.721C33.8543 32.8807 34.1182 32.9756 34.3928 32.9952C34.6675 33.0149 34.9422 32.9586 35.187 32.8325C35.4317 32.7064 35.6371 32.5154 35.7805 32.2803C35.9239 32.0453 35.9998 31.7753 36 31.5V16.5C35.9998 16.2247 35.9239 15.9547 35.7805 15.7197C35.6371 15.4846 35.4317 15.2936 35.187 15.1675C34.9422 15.0414 34.6675 14.9851 34.3928 15.0048C34.1182 15.0244 33.8543 15.1193 33.63 15.279Z" fill="white"/>
</svg>
