<svg width="219" height="53" viewBox="0 0 219 53" fill="none" xmlns="http://www.w3.org/2000/svg">
<path d="M37.536 44H33.248V34.592C33.248 33.248 33.0133 32.2667 32.544 31.648C32.0747 31.0293 31.424 30.72 30.592 30.72C30.016 30.72 29.4293 30.8693 28.832 31.168C28.256 31.4667 27.7333 31.8827 27.264 32.416C26.7947 32.928 26.4533 33.5253 26.24 34.208V44H21.952V27.232H25.824V30.336C26.2507 29.6107 26.7947 29.0027 27.456 28.512C28.1173 28 28.8747 27.616 29.728 27.36C30.6027 27.0827 31.52 26.944 32.48 26.944C33.5253 26.944 34.3787 27.136 35.04 27.52C35.7227 27.8827 36.2347 28.384 36.576 29.024C36.9387 29.6427 37.184 30.3467 37.312 31.136C37.4613 31.9253 37.536 32.7253 37.536 33.536V44ZM47.4405 44.32C46.0112 44.32 44.6458 44.0853 43.3445 43.616C42.0432 43.1467 40.9232 42.4533 39.9845 41.536L41.5205 38.752C42.5232 39.5627 43.5045 40.16 44.4645 40.544C45.4458 40.928 46.3845 41.12 47.2805 41.12C48.1125 41.12 48.7738 40.9707 49.2645 40.672C49.7765 40.3733 50.0325 39.9253 50.0325 39.328C50.0325 38.9227 49.8938 38.6133 49.6165 38.4C49.3392 38.1653 48.9338 37.9627 48.4005 37.792C47.8885 37.6213 47.2592 37.4293 46.5125 37.216C45.2752 36.8107 44.2405 36.416 43.4085 36.032C42.5765 35.648 41.9472 35.168 41.5205 34.592C41.1152 33.9947 40.9125 33.2373 40.9125 32.32C40.9125 31.2107 41.1898 30.2613 41.7445 29.472C42.3205 28.6613 43.1098 28.032 44.1125 27.584C45.1365 27.136 46.3312 26.912 47.6965 26.912C48.8912 26.912 50.0218 27.104 51.0885 27.488C52.1552 27.8507 53.1258 28.448 54.0005 29.28L52.2725 32C51.4192 31.3387 50.6085 30.8587 49.8405 30.56C49.0725 30.24 48.2938 30.08 47.5045 30.08C47.0565 30.08 46.6298 30.1333 46.2245 30.24C45.8405 30.3467 45.5205 30.528 45.2645 30.784C45.0298 31.0187 44.9125 31.36 44.9125 31.808C44.9125 32.2133 45.0192 32.5333 45.2325 32.768C45.4672 32.9813 45.8085 33.1733 46.2565 33.344C46.7258 33.5147 47.2912 33.7067 47.9525 33.92C49.2965 34.304 50.4272 34.6987 51.3445 35.104C52.2832 35.5093 52.9872 36.0107 53.4565 36.608C53.9258 37.184 54.1605 37.984 54.1605 39.008C54.1605 40.672 53.5525 41.9733 52.3365 42.912C51.1205 43.8507 49.4885 44.32 47.4405 44.32ZM67.0312 43.136C66.6686 43.2853 66.2312 43.456 65.7192 43.648C65.2072 43.84 64.6526 43.9893 64.0552 44.096C63.4792 44.224 62.8926 44.288 62.2952 44.288C61.5059 44.288 60.7806 44.1493 60.1192 43.872C59.4579 43.5947 58.9246 43.1573 58.5192 42.56C58.1352 41.9413 57.9432 41.1413 57.9432 40.16V30.528H55.7352V27.232H57.9432V21.792H62.2312V27.232H65.7512V30.528H62.2312V38.72C62.2526 39.296 62.4126 39.712 62.7112 39.968C63.0099 40.224 63.3832 40.352 63.8312 40.352C64.2792 40.352 64.7166 40.2773 65.1432 40.128C65.5699 39.9787 65.9112 39.8507 66.1672 39.744L67.0312 43.136ZM79.2485 30.944C77.9472 30.944 76.7845 31.2 75.7605 31.712C74.7365 32.2027 74.0005 32.9173 73.5525 33.856V44H69.2645V27.232H73.2005V30.816C73.7978 29.664 74.5552 28.7573 75.4725 28.096C76.3898 27.4347 77.3605 27.072 78.3845 27.008C78.6192 27.008 78.8005 27.008 78.9285 27.008C79.0565 27.008 79.1632 27.0187 79.2485 27.04V30.944ZM81.4795 37.728V27.232H85.7675V36.8C85.7675 38.08 86.0022 39.0507 86.4715 39.712C86.9408 40.352 87.6342 40.672 88.5515 40.672C89.1062 40.672 89.6502 40.5653 90.1835 40.352C90.7382 40.1173 91.2395 39.776 91.6875 39.328C92.1568 38.88 92.5515 38.3147 92.8715 37.632V27.232H97.1595V39.2C97.1595 39.648 97.2342 39.968 97.3835 40.16C97.5542 40.352 97.8208 40.4693 98.1835 40.512V44C97.7568 44.064 97.3942 44.1067 97.0955 44.128C96.8182 44.1707 96.5622 44.192 96.3275 44.192C95.5595 44.192 94.9302 44.0213 94.4395 43.68C93.9702 43.3173 93.6928 42.8267 93.6075 42.208L93.5115 40.864C92.7648 41.9947 91.8048 42.8587 90.6315 43.456C89.4582 44.032 88.1675 44.32 86.7595 44.32C85.0315 44.32 83.7195 43.7653 82.8235 42.656C81.9275 41.5253 81.4795 39.8827 81.4795 37.728ZM120.365 44V29.088L114.541 40.192H112.077L106.253 29.088V44H101.837V21.28H106.573L113.293 34.208L120.077 21.28H124.781V44H120.365ZM136.603 44.32C135.259 44.32 134.043 44.096 132.955 43.648C131.867 43.1787 130.939 42.5493 130.171 41.76C129.403 40.9493 128.806 40.032 128.379 39.008C127.974 37.9627 127.771 36.864 127.771 35.712C127.771 34.112 128.123 32.6507 128.827 31.328C129.552 30.0053 130.576 28.9493 131.899 28.16C133.243 27.3493 134.822 26.944 136.635 26.944C138.47 26.944 140.038 27.3493 141.339 28.16C142.64 28.9493 143.632 30.0053 144.315 31.328C145.019 32.6293 145.371 34.0373 145.371 35.552C145.371 35.808 145.36 36.0747 145.339 36.352C145.318 36.608 145.296 36.8213 145.275 36.992H132.315C132.4 37.8453 132.646 38.592 133.051 39.232C133.478 39.872 134.011 40.3627 134.651 40.704C135.312 41.024 136.016 41.184 136.763 41.184C137.616 41.184 138.416 40.9813 139.163 40.576C139.931 40.1493 140.454 39.5947 140.731 38.912L144.411 39.936C144.006 40.7893 143.419 41.5467 142.651 42.208C141.904 42.8693 141.019 43.392 139.995 43.776C138.971 44.1387 137.84 44.32 136.603 44.32ZM132.219 34.272H140.987C140.902 33.4187 140.656 32.6827 140.251 32.064C139.867 31.424 139.355 30.9333 138.715 30.592C138.075 30.2293 137.36 30.048 136.571 30.048C135.803 30.048 135.099 30.2293 134.459 30.592C133.84 30.9333 133.328 31.424 132.923 32.064C132.539 32.6827 132.304 33.4187 132.219 34.272ZM163.567 44H159.279V34.592C159.279 33.248 159.045 32.2667 158.575 31.648C158.106 31.0293 157.455 30.72 156.623 30.72C156.047 30.72 155.461 30.8693 154.863 31.168C154.287 31.4667 153.765 31.8827 153.295 32.416C152.826 32.928 152.485 33.5253 152.271 34.208V44H147.983V27.232H151.855V30.336C152.282 29.6107 152.826 29.0027 153.487 28.512C154.149 28 154.906 27.616 155.759 27.36C156.634 27.0827 157.551 26.944 158.511 26.944C159.557 26.944 160.41 27.136 161.071 27.52C161.754 27.8827 162.266 28.384 162.607 29.024C162.97 29.6427 163.215 30.3467 163.343 31.136C163.493 31.9253 163.567 32.7253 163.567 33.536V44ZM177.25 43.136C176.887 43.2853 176.45 43.456 175.938 43.648C175.426 43.84 174.871 43.9893 174.274 44.096C173.698 44.224 173.111 44.288 172.514 44.288C171.725 44.288 170.999 44.1493 170.338 43.872C169.677 43.5947 169.143 43.1573 168.738 42.56C168.354 41.9413 168.162 41.1413 168.162 40.16V30.528H165.954V27.232H168.162V21.792H172.45V27.232H175.97V30.528H172.45V38.72C172.471 39.296 172.631 39.712 172.93 39.968C173.229 40.224 173.602 40.352 174.05 40.352C174.498 40.352 174.935 40.2773 175.362 40.128C175.789 39.9787 176.13 39.8507 176.386 39.744L177.25 43.136ZM178.331 39.04C178.331 37.952 178.63 37.0027 179.227 36.192C179.846 35.36 180.699 34.72 181.787 34.272C182.875 33.824 184.123 33.6 185.531 33.6C186.235 33.6 186.95 33.6533 187.675 33.76C188.401 33.8667 189.03 34.0373 189.563 34.272V33.376C189.563 32.3093 189.243 31.488 188.603 30.912C187.985 30.336 187.057 30.048 185.819 30.048C184.902 30.048 184.027 30.208 183.195 30.528C182.363 30.848 181.489 31.3173 180.571 31.936L179.195 29.12C180.305 28.3947 181.435 27.8507 182.587 27.488C183.761 27.1253 184.987 26.944 186.267 26.944C188.657 26.944 190.513 27.5413 191.835 28.736C193.179 29.9307 193.851 31.6373 193.851 33.856V39.2C193.851 39.648 193.926 39.968 194.075 40.16C194.246 40.352 194.513 40.4693 194.875 40.512V44C194.491 44.064 194.139 44.1173 193.819 44.16C193.521 44.2027 193.265 44.224 193.051 44.224C192.198 44.224 191.547 44.032 191.099 43.648C190.673 43.264 190.406 42.7947 190.299 42.24L190.203 41.376C189.478 42.3147 188.571 43.04 187.483 43.552C186.395 44.064 185.286 44.32 184.155 44.32C183.046 44.32 182.043 44.096 181.147 43.648C180.273 43.1787 179.579 42.5493 179.067 41.76C178.577 40.9493 178.331 40.0427 178.331 39.04ZM188.763 39.904C188.998 39.648 189.19 39.392 189.339 39.136C189.489 38.88 189.563 38.6453 189.563 38.432V36.736C189.051 36.5227 188.497 36.3627 187.899 36.256C187.302 36.128 186.737 36.064 186.203 36.064C185.094 36.064 184.177 36.3093 183.451 36.8C182.747 37.2693 182.395 37.8987 182.395 38.688C182.395 39.1147 182.513 39.52 182.747 39.904C182.982 40.288 183.323 40.5973 183.771 40.832C184.219 41.0667 184.753 41.184 185.371 41.184C186.011 41.184 186.641 41.0667 187.259 40.832C187.878 40.576 188.379 40.2667 188.763 39.904ZM197.826 20.64H202.114V38.624C202.114 39.392 202.242 39.9147 202.498 40.192C202.754 40.448 203.106 40.576 203.554 40.576C203.896 40.576 204.248 40.5333 204.61 40.448C204.973 40.3627 205.293 40.256 205.57 40.128L206.146 43.392C205.57 43.6693 204.898 43.8827 204.13 44.032C203.362 44.1813 202.669 44.256 202.05 44.256C200.706 44.256 199.661 43.904 198.914 43.2C198.189 42.4747 197.826 41.4507 197.826 40.128V20.64Z" fill="#36018C"/>
<path d="M15.5024 11.7399C15.5024 11.7399 8.10476 12.3354 10.0262 14.5529C11.9476 16.7704 14.2303 38.9533 11.9766 41.1666C9.72296 43.3799 6.98279 33.3989 3.40976 35.5495C-0.163272 37.7002 2.10542 45.8863 6.66506 46.5154C11.2247 47.1445 14.5534 43.2444 14.8937 37.4419C15.2341 31.6393 13.9843 21.7658 13.9016 19.7755C13.8189 17.7851 16.2248 17.2971 18.873 19.9602C21.5213 22.6232 27.825 20.8912 30.2837 17.896C32.7423 14.9008 32.9583 8.76825 32.9583 8.76825C32.9583 8.76825 33.2402 11.9297 27.6861 11.8755C22.1321 11.8213 17.5362 11.4376 15.5024 11.7399Z" fill="#36018C"/>
<circle cx="10.5" cy="3.5" r="3.5" fill="#36018C"/>
</svg>
